<?xml version="1.0" standalone="no"?><!DOCTYPE svg PUBLIC "-//W3C//DTD SVG 1.1//EN" "http://www.w3.org/Graphics/SVG/1.1/DTD/svg11.dtd"><svg class="icon" width="16px" height="16.00px" viewBox="0 0 1024 1024" version="1.1" xmlns="http://www.w3.org/2000/svg"><path fill="#333333" d="M838 666.4l-46.3-72.8c-4.6-7.2-7.3-15.5-7.9-24.1L767.7 325C759.2 195.4 657.7 87.8 528 80.2 387 71.9 267.4 178.9 258.3 318l-16.5 251.4c-0.6 8.6-3.3 16.9-7.9 24.1l-46.3 72.8c-21.7 34.1 2.8 78.7 43.2 78.7H795c40.3 0 64.7-44.5 43-78.6zM571.7 796.2c26.6 0 42.8 29 29.2 51.9-17.8 30.2-50.7 50.5-88.2 50.5s-70.4-20.3-88.2-50.5c-13.5-22.9 2.6-51.9 29.2-51.9h118z"  /></svg>